Point(1) = { 7.870001, 8.700001, 0.11, 0.5 };
Point(2) = { 7.870001, 0.0, 0.0, 0.5 };
Point(3) = { 7.870001, 0.0, 0.11, 0.5 };
Point(4) = { 7.870001, 8.700001, 0.0, 0.5 };
Point(5) = { 14.189999, 8.700001, 0.0, 0.5 };
Point(6) = { 14.189999, 8.700001, 3.98, 1.0 };
Point(7) = { 6.82, 8.700001, 0.25, 0.5 };
Point(8) = { 6.82, 8.700001, 0.11, 0.5 };
Point(9) = { 6.82, 0.0, 0.11, 0.5 };
Point(10) = { 14.189999, 0.0, 3.98, 1.0 };
Point(11) = { 14.189999, 0.0, 0.0, 0.5 };
Point(12) = { 0.03, 8.700001, 3.98, 1.0 };
Point(13) = { 0.03, 0.0, 3.98, 1.0 };
Point(14) = { 0.03, 0.0, 0.98, 0.5 };
Point(15) = { 0.03, 8.700001, 0.98, 0.5 };
Point(16) = { 2.62, 8.700001, 0.98, 0.5 };
Point(17) = { 3.08, 8.700001, 0.88, 0.5 };
Point(18) = { 3.67, 8.700001, 0.77, 0.5 };
Point(19) = { 4.13, 8.700001, 0.68, 0.5 };
Point(20) = { 4.72, 8.700001, 0.58, 0.5 };
Point(21) = { 5.18, 8.700001, 0.49, 0.5 };
Point(22) = { 5.77, 8.700001, 0.41, 0.5 };
Point(23) = { 6.23, 8.700001, 0.34, 0.5 };
Point(24) = { 6.23, 8.700001, 0.25, 0.5 };
Point(25) = { 6.23, 0.0, 0.25, 0.5 };
Point(26) = { 6.82, 0.0, 0.25, 0.5 };
Point(27) = { 6.23, 0.0, 0.34, 0.5 };
Point(28) = { 5.77, 0.0, 0.34, 0.5 };
Point(29) = { 5.77, 0.0, 0.41, 0.5 };
Point(30) = { 5.18, 0.0, 0.41, 0.5 };
Point(31) = { 5.18, 0.0, 0.49, 0.5 };
Point(32) = { 4.72, 0.0, 0.49, 0.5 };
Point(33) = { 4.72, 0.0, 0.58, 0.5 };
Point(34) = { 4.13, 0.0, 0.58, 0.5 };
Point(35) = { 4.13, 0.0, 0.68, 0.5 };
Point(36) = { 3.67, 0.0, 0.68, 0.5 };
Point(37) = { 3.67, 0.0, 0.77, 0.5 };
Point(38) = { 3.08, 0.0, 0.77, 0.5 };
Point(39) = { 3.08, 0.0, 0.88, 0.5 };
Point(40) = { 2.62, 0.0, 0.88, 0.5 };
Point(41) = { 2.62, 0.0, 0.98, 0.5 };
Point(42) = { 2.62, 8.700001, 0.88, 0.5 };
Point(43) = { 3.08, 8.700001, 0.77, 0.5 };
Point(44) = { 3.67, 8.700001, 0.68, 0.5 };
Point(45) = { 4.13, 8.700001, 0.58, 0.5 };
Point(46) = { 4.72, 8.700001, 0.49, 0.5 };
Point(47) = { 5.18, 8.700001, 0.41, 0.5 };
Point(48) = { 5.77, 8.700001, 0.34, 0.5 };
Line(1) = { 1, 2 };
Line(2) = { 2, 3 };
Line(3) = { 1, 3 };
Line(4) = { 1, 4 };
Line(5) = { 2, 4 };
Line(6) = { 1, 5 };
Line(7) = { 4, 5 };
Line(8) = { 1, 6 };
Line(9) = { 5, 6 };
Line(10) = { 1, 7 };
Line(11) = { 6, 7 };
Line(12) = { 1, 8 };
Line(13) = { 7, 8 };
Line(14) = { 1, 9 };
Line(15) = { 8, 9 };
Line(16) = { 3, 9 };
Line(17) = { 3, 10 };
Line(18) = { 9, 10 };
Line(19) = { 2, 10 };
Line(20) = { 2, 11 };
Line(21) = { 10, 11 };
Line(22) = { 2, 5 };
Line(23) = { 5, 11 };
Line(24) = { 5, 10 };
Line(25) = { 6, 10 };
Line(26) = { 10, 12 };
Line(27) = { 6, 12 };
Line(28) = { 12, 13 };
Line(29) = { 10, 13 };
Line(30) = { 12, 14 };
Line(31) = { 13, 14 };
Line(32) = { 12, 15 };
Line(33) = { 14, 15 };
Line(34) = { 12, 16 };
Line(35) = { 15, 16 };
Line(36) = { 6, 16 };
Line(37) = { 6, 17 };
Line(38) = { 16, 17 };
Line(39) = { 6, 18 };
Line(40) = { 17, 18 };
Line(41) = { 6, 19 };
Line(42) = { 18, 19 };
Line(43) = { 6, 20 };
Line(44) = { 19, 20 };
Line(45) = { 6, 21 };
Line(46) = { 20, 21 };
Line(47) = { 6, 22 };
Line(48) = { 21, 22 };
Line(49) = { 6, 23 };
Line(50) = { 22, 23 };
Line(51) = { 7, 23 };
Line(52) = { 7, 24 };
Line(53) = { 23, 24 };
Line(54) = { 7, 25 };
Line(55) = { 24, 25 };
Line(56) = { 7, 26 };
Line(57) = { 25, 26 };
Line(58) = { 7, 9 };
Line(59) = { 9, 26 };
Line(60) = { 10, 26 };
Line(61) = { 10, 25 };
Line(62) = { 10, 27 };
Line(63) = { 25, 27 };
Line(64) = { 10, 28 };
Line(65) = { 27, 28 };
Line(66) = { 10, 29 };
Line(67) = { 28, 29 };
Line(68) = { 10, 30 };
Line(69) = { 29, 30 };
Line(70) = { 10, 31 };
Line(71) = { 30, 31 };
Line(72) = { 10, 32 };
Line(73) = { 31, 32 };
Line(74) = { 10, 33 };
Line(75) = { 32, 33 };
Line(76) = { 10, 34 };
Line(77) = { 33, 34 };
Line(78) = { 10, 35 };
Line(79) = { 34, 35 };
Line(80) = { 10, 36 };
Line(81) = { 35, 36 };
Line(82) = { 10, 37 };
Line(83) = { 36, 37 };
Line(84) = { 10, 38 };
Line(85) = { 37, 38 };
Line(86) = { 10, 39 };
Line(87) = { 38, 39 };
Line(88) = { 10, 40 };
Line(89) = { 39, 40 };
Line(90) = { 10, 41 };
Line(91) = { 40, 41 };
Line(92) = { 10, 14 };
Line(93) = { 14, 41 };
Line(94) = { 14, 16 };
Line(95) = { 16, 41 };
Line(96) = { 16, 40 };
Line(97) = { 16, 42 };
Line(98) = { 40, 42 };
Line(99) = { 17, 42 };
Line(100) = { 17, 40 };
Line(101) = { 17, 39 };
Line(102) = { 17, 38 };
Line(103) = { 17, 43 };
Line(104) = { 38, 43 };
Line(105) = { 18, 43 };
Line(106) = { 18, 38 };
Line(107) = { 18, 37 };
Line(108) = { 18, 36 };
Line(109) = { 18, 44 };
Line(110) = { 36, 44 };
Line(111) = { 19, 44 };
Line(112) = { 19, 36 };
Line(113) = { 19, 34 };
Line(114) = { 19, 35 };
Line(115) = { 19, 45 };
Line(116) = { 34, 45 };
Line(117) = { 20, 45 };
Line(118) = { 20, 34 };
Line(119) = { 20, 33 };
Line(120) = { 20, 32 };
Line(121) = { 20, 46 };
Line(122) = { 32, 46 };
Line(123) = { 21, 46 };
Line(124) = { 21, 32 };
Line(125) = { 21, 31 };
Line(126) = { 21, 30 };
Line(127) = { 21, 47 };
Line(128) = { 30, 47 };
Line(129) = { 22, 47 };
Line(130) = { 22, 30 };
Line(131) = { 22, 29 };
Line(132) = { 22, 28 };
Line(133) = { 22, 48 };
Line(134) = { 28, 48 };
Line(135) = { 23, 48 };
Line(136) = { 23, 28 };
Line(137) = { 23, 27 };
Line(138) = { 23, 25 };
Line Loop(1) = { 1, 2, -3 };
Line Loop(2) = { -1, 4, -5 };
Line Loop(3) = { 6, -7, -4 };
Line Loop(4) = { -6, 8, -9 };
Line Loop(5) = { -8, 10, -11 };
Line Loop(6) = { -10, 12, -13 };
Line Loop(7) = { 14, -15, -12 };
Line Loop(8) = { -14, 3, 16 };
Line Loop(9) = { 17, -18, -16 };
Line Loop(10) = { 19, -17, -2 };
Line Loop(11) = { -19, 20, -21 };
Line Loop(12) = { 22, 23, -20 };
Line Loop(13) = { -22, 5, 7 };
Line Loop(14) = { 24, 21, -23 };
Line Loop(15) = { -24, 9, 25 };
Line Loop(16) = { -26, -25, 27 };
Line Loop(17) = { 26, 28, -29 };
Line Loop(18) = { 30, -31, -28 };
Line Loop(19) = { -30, 32, -33 };
Line Loop(20) = { 34, -35, -32 };
Line Loop(21) = { 36, -34, -27 };
Line Loop(22) = { 37, -38, -36 };
Line Loop(23) = { 39, -40, -37 };
Line Loop(24) = { 41, -42, -39 };
Line Loop(25) = { 43, -44, -41 };
Line Loop(26) = { 45, -46, -43 };
Line Loop(27) = { 47, -48, -45 };
Line Loop(28) = { 49, -50, -47 };
Line Loop(29) = { 11, 51, -49 };
Line Loop(30) = { -51, 52, -53 };
Line Loop(31) = { 54, -55, -52 };
Line Loop(32) = { -54, 56, -57 };
Line Loop(33) = { 58, 59, -56 };
Line Loop(34) = { -58, 13, 15 };
Line Loop(35) = { 18, 60, -59 };
Line Loop(36) = { -60, 61, 57 };
Line Loop(37) = { -61, 62, -63 };
Line Loop(38) = { -62, 64, -65 };
Line Loop(39) = { -64, 66, -67 };
Line Loop(40) = { -66, 68, -69 };
Line Loop(41) = { -68, 70, -71 };
Line Loop(42) = { -70, 72, -73 };
Line Loop(43) = { -72, 74, -75 };
Line Loop(44) = { -74, 76, -77 };
Line Loop(45) = { -76, 78, -79 };
Line Loop(46) = { -78, 80, -81 };
Line Loop(47) = { -80, 82, -83 };
Line Loop(48) = { -82, 84, -85 };
Line Loop(49) = { -84, 86, -87 };
Line Loop(50) = { -86, 88, -89 };
Line Loop(51) = { -88, 90, -91 };
Line Loop(52) = { -90, 92, 93 };
Line Loop(53) = { -92, 29, 31 };
Line Loop(54) = { 94, 95, -93 };
Line Loop(55) = { -94, 33, 35 };
Line Loop(56) = { 96, 91, -95 };
Line Loop(57) = { -96, 97, -98 };
Line Loop(58) = { 38, 99, -97 };
Line Loop(59) = { 100, 98, -99 };
Line Loop(60) = { -100, 101, 89 };
Line Loop(61) = { 102, 87, -101 };
Line Loop(62) = { -102, 103, -104 };
Line Loop(63) = { 40, 105, -103 };
Line Loop(64) = { 106, 104, -105 };
Line Loop(65) = { -106, 107, 85 };
Line Loop(66) = { 108, 83, -107 };
Line Loop(67) = { -108, 109, -110 };
Line Loop(68) = { 42, 111, -109 };
Line Loop(69) = { 112, 110, -111 };
Line Loop(70) = { 113, 79, -114 };
Line Loop(71) = { -112, 114, 81 };
Line Loop(72) = { -113, 115, -116 };
Line Loop(73) = { 44, 117, -115 };
Line Loop(74) = { 118, 116, -117 };
Line Loop(75) = { -118, 119, 77 };
Line Loop(76) = { 120, 75, -119 };
Line Loop(77) = { -120, 121, -122 };
Line Loop(78) = { 46, 123, -121 };
Line Loop(79) = { 124, 122, -123 };
Line Loop(80) = { -124, 125, 73 };
Line Loop(81) = { 126, 71, -125 };
Line Loop(82) = { -126, 127, -128 };
Line Loop(83) = { 48, 129, -127 };
Line Loop(84) = { 130, 128, -129 };
Line Loop(85) = { -130, 131, 69 };
Line Loop(86) = { 132, 67, -131 };
Line Loop(87) = { -132, 133, -134 };
Line Loop(88) = { 50, 135, -133 };
Line Loop(89) = { 136, 134, -135 };
Line Loop(90) = { -136, 137, 65 };
Line Loop(91) = { 138, 63, -137 };
Line Loop(92) = { -138, 53, 55 };
Plane Surface(1) = { 1 };
Plane Surface(2) = { 2 };
Plane Surface(3) = { 3 };
Plane Surface(4) = { 4 };
Plane Surface(5) = { 5 };
Plane Surface(6) = { 6 };
Plane Surface(7) = { 7 };
Plane Surface(8) = { 8 };
Plane Surface(9) = { 9 };
Plane Surface(10) = { 10 };
Plane Surface(11) = { 11 };
Plane Surface(12) = { 12 };
Plane Surface(13) = { 13 };
Plane Surface(14) = { 14 };
Plane Surface(15) = { 15 };
Plane Surface(16) = { 16 };
Plane Surface(17) = { 17 };
Plane Surface(18) = { 18 };
Plane Surface(19) = { 19 };
Plane Surface(20) = { 20 };
Plane Surface(21) = { 21 };
Plane Surface(22) = { 22 };
Plane Surface(23) = { 23 };
Plane Surface(24) = { 24 };
Plane Surface(25) = { 25 };
Plane Surface(26) = { 26 };
Plane Surface(27) = { 27 };
Plane Surface(28) = { 28 };
Plane Surface(29) = { 29 };
Plane Surface(30) = { 30 };
Plane Surface(31) = { 31 };
Plane Surface(32) = { 32 };
Plane Surface(33) = { 33 };
Plane Surface(34) = { 34 };
Plane Surface(35) = { 35 };
Plane Surface(36) = { 36 };
Plane Surface(37) = { 37 };
Plane Surface(38) = { 38 };
Plane Surface(39) = { 39 };
Plane Surface(40) = { 40 };
Plane Surface(41) = { 41 };
Plane Surface(42) = { 42 };
Plane Surface(43) = { 43 };
Plane Surface(44) = { 44 };
Plane Surface(45) = { 45 };
Plane Surface(46) = { 46 };
Plane Surface(47) = { 47 };
Plane Surface(48) = { 48 };
Plane Surface(49) = { 49 };
Plane Surface(50) = { 50 };
Plane Surface(51) = { 51 };
Plane Surface(52) = { 52 };
Plane Surface(53) = { 53 };
Plane Surface(54) = { 54 };
Plane Surface(55) = { 55 };
Plane Surface(56) = { 56 };
Plane Surface(57) = { 57 };
Plane Surface(58) = { 58 };
Plane Surface(59) = { 59 };
Plane Surface(60) = { 60 };
Plane Surface(61) = { 61 };
Plane Surface(62) = { 62 };
Plane Surface(63) = { 63 };
Plane Surface(64) = { 64 };
Plane Surface(65) = { 65 };
Plane Surface(66) = { 66 };
Plane Surface(67) = { 67 };
Plane Surface(68) = { 68 };
Plane Surface(69) = { 69 };
Plane Surface(70) = { 70 };
Plane Surface(71) = { 71 };
Plane Surface(72) = { 72 };
Plane Surface(73) = { 73 };
Plane Surface(74) = { 74 };
Plane Surface(75) = { 75 };
Plane Surface(76) = { 76 };
Plane Surface(77) = { 77 };
Plane Surface(78) = { 78 };
Plane Surface(79) = { 79 };
Plane Surface(80) = { 80 };
Plane Surface(81) = { 81 };
Plane Surface(82) = { 82 };
Plane Surface(83) = { 83 };
Plane Surface(84) = { 84 };
Plane Surface(85) = { 85 };
Plane Surface(86) = { 86 };
Plane Surface(87) = { 87 };
Plane Surface(88) = { 88 };
Plane Surface(89) = { 89 };
Plane Surface(90) = { 90 };
Plane Surface(91) = { 91 };
Plane Surface(92) = { 92 };
Surface Loop(1) = { 1, 2, 3, 4, 5, 6, 7, 8, 9, 10, 11, 12, 13, 14, 15, 16, 17, 18, 19, 20, 21, 22, 23, 24, 25, 26, 27, 28, 29, 30, 31, 32, 33, 34, 35, 36, 37, 38, 39, 40, 41, 42, 43, 44, 45, 46, 47, 48, 49, 50, 51, 52, 53, 54, 55, 56, 57, 58, 59, 60, 61, 62, 63, 64, 65, 66, 67, 68, 69, 70, 71, 72, 73, 74, 75, 76, 77, 78, 79, 80, 81, 82, 83, 84, 85, 86, 87, 88, 89, 90, 91, 92 };
Physical Surface("default") = { 1, 2, 3, 4, 5, 6, 7, 8, 9, 10, 11, 12, 13, 14, 15, 16, 17, 18, 19, 20, 21, 22, 23, 24, 25, 26, 27, 28, 29, 30, 31, 32, 33, 34, 35, 36, 37, 38, 39, 40, 41, 42, 43, 44, 45, 46, 47, 48, 49, 50, 51, 52, 53, 54, 55, 56, 57, 58, 59, 60, 61, 62, 63, 64, 65, 66, 67, 68, 69, 70, 71, 72, 73, 74, 75, 76, 77, 78, 79, 80, 81, 82, 83, 84, 85, 86, 87, 88, 89, 90, 91, 92 };
Volume( 1 ) = { 1 };
Physical Volume("region_1") = { 1 };
Physical Line ("default") = {1, 2, 3, 4, 5, 6, 7, 8, 9, 10, 11, 12, 13, 14, 15, 16, 17, 18, 19, 20, 21, 22, 23, 24, 25, 26, 27, 28, 29, 30, 31, 32, 33, 34, 35, 36, 37, 38, 39, 40, 41, 42, 43, 44, 45, 46, 47, 48, 49, 50, 51, 52, 53, 54, 55, 56, 57, 58, 59, 60, 61, 62, 63, 64, 65, 66, 67, 68, 69, 70, 71, 72, 73, 74, 75, 76, 77, 78, 79, 80, 81, 82, 83, 84, 85, 86, 87, 88, 89, 90, 91, 92, 93, 94, 95, 96, 97, 98, 99, 100, 101, 102, 103, 104, 105, 106, 107, 108, 109, 110, 111, 112, 113, 114, 115, 116, 117, 118, 119, 120, 121, 122, 123, 124, 125, 126, 127, 128, 129, 130, 131, 132, 133, 134, 135, 136, 137, 138};
Mesh.Algorithm = 6;
Mesh.Algorithm3D = 1; // Delaunay3D, works for boundary layer insertion.
Mesh.Optimize = 1; // Gmsh smoother, works with boundary layers (netgen version does not).
Mesh.CharacteristicLengthFromPoints = 1;
// Recombine Surface "*";
Mesh.RemeshAlgorithm = 1; // automatic

